# xmcd
#
# Track frame offsets:
#	150
#	21937
#	31720
#	44446
#	58165
#	76559
#	96818
#	113526
#	128693
#	158488
#
# Disc length: 2696 seconds
#
# Revision: 1
# Processed by: cddbd v1.5.1PL2 Copyright (c) Steve Scherf et al.
# Submitted via: audiograbber 1.83.01
#
DISCID=680a860a
DTITLE=The Bo'Hogs - The Bo'Hog Grind
DYEAR=2003
DGENRE=Blues
TTITLE0=5 Over 98
TTITLE1=Can't Quit Me
TTITLE2=Sudden Love Syndrome
TTITLE3=Last Leavin' Blues
TTITLE4=She's Got My Number
TTITLE5=Lovin' Man
TTITLE6=Spreading Roots
TTITLE7=Unangan Blues
TTITLE8=Who's Cheatin' Who?
TTITLE9=Unchain Me
EXTD=Produced By - Andrew Green\nEngineer - Brian Susko\nPhotographer - Frank Pinn
EXTD=ock\nGraphic Design - Nadine G. Messier\nFor Bo'Hog Records - www.bohogs.com
EXTT0=
EXTT1=
EXTT2=
EXTT3=
EXTT4=
EXTT5=
EXTT6=
EXTT7=
EXTT8=
EXTT9=
PLAYORDER=
